<svg width="98" height="26" viewBox="0 0 98 26" fill="none" xmlns="http://www.w3.org/2000/svg">
<path d="M8.18001 18.8C9.04667 18.8 9.87334 18.6333 10.66 18.3C11.4467 17.9533 12.1067 17.48 12.64 16.88L13.64 17.92C12.9467 18.64 12.12 19.2067 11.16 19.62C10.2 20.02 9.19334 20.22 8.14001 20.22C7.12667 20.22 6.17334 20.0333 5.28 19.66C4.4 19.2867 3.63334 18.78 2.98 18.14C2.32667 17.4867 1.81334 16.72 1.44 15.84C1.06667 14.9467 0.880005 14 0.880005 13C0.880005 12 1.06667 11.06 1.44 10.18C1.81334 9.28667 2.32667 8.52 2.98 7.88C3.63334 7.22667 4.4 6.71333 5.28 6.34C6.17334 5.96666 7.12667 5.78 8.14001 5.78C9.22001 5.78 10.24 5.98667 11.2 6.4C12.1733 6.8 13 7.36 13.68 8.08L12.66 9.16C12.1133 8.54667 11.4333 8.06667 10.62 7.72C9.82001 7.37333 8.99334 7.2 8.14001 7.2C7.34001 7.2 6.58667 7.35333 5.88 7.66C5.18667 7.95333 4.58667 8.36 4.08001 8.88C3.57334 9.38667 3.17334 10 2.88 10.72C2.58667 11.4267 2.44 12.1867 2.44 13C2.44 13.8133 2.58667 14.58 2.88 15.3C3.17334 16.0067 3.57334 16.62 4.08001 17.14C4.60001 17.6467 5.20667 18.0533 5.90001 18.36C6.60667 18.6533 7.36667 18.8 8.18001 18.8Z" fill="white"/>
<path d="M23.9736 20V6H25.5136V18.62H33.8536V20H23.9736Z" fill="white"/>
<path d="M56.4758 13C56.4758 14 56.2891 14.9467 55.9158 15.84C55.5425 16.72 55.0291 17.4867 54.3758 18.14C53.7358 18.78 52.9758 19.2867 52.0958 19.66C51.2158 20.0333 50.2758 20.22 49.2758 20.22C48.2758 20.22 47.3291 20.0333 46.4358 19.66C45.5558 19.2867 44.7891 18.78 44.1358 18.14C43.4958 17.4867 42.9891 16.72 42.6158 15.84C42.2425 14.9467 42.0558 14 42.0558 13C42.0558 12 42.2425 11.06 42.6158 10.18C42.9891 9.28667 43.4958 8.52 44.1358 7.88C44.7891 7.22667 45.5558 6.71333 46.4358 6.34C47.3291 5.96666 48.2758 5.78 49.2758 5.78C50.2758 5.78 51.2158 5.96666 52.0958 6.34C52.9758 6.71333 53.7358 7.22667 54.3758 7.88C55.0291 8.52 55.5425 9.28667 55.9158 10.18C56.2891 11.06 56.4758 12 56.4758 13ZM54.9158 13C54.9158 12.1867 54.7691 11.4267 54.4758 10.72C54.1825 10 53.7825 9.38667 53.2758 8.88C52.7825 8.36 52.1891 7.95333 51.4958 7.66C50.8025 7.35333 50.0625 7.2 49.2758 7.2C48.4758 7.2 47.7291 7.35333 47.0358 7.66C46.3425 7.95333 45.7425 8.36 45.2358 8.88C44.7425 9.38667 44.3491 10 44.0558 10.72C43.7625 11.4267 43.6158 12.1867 43.6158 13C43.6158 13.8133 43.7625 14.5733 44.0558 15.28C44.3491 15.9867 44.7425 16.6 45.2358 17.12C45.7425 17.64 46.3425 18.0533 47.0358 18.36C47.7291 18.6533 48.4758 18.8 49.2758 18.8C50.0625 18.8 50.8025 18.6533 51.4958 18.36C52.1891 18.0533 52.7825 17.64 53.2758 17.12C53.7825 16.6 54.1825 15.9867 54.4758 15.28C54.7691 14.5733 54.9158 13.8133 54.9158 13Z" fill="white"/>
<path d="M65.5677 17.6L66.5877 16.54C67.3077 17.3 68.0743 17.88 68.8877 18.28C69.7143 18.6667 70.581 18.86 71.4877 18.86C72.581 18.86 73.481 18.6 74.1877 18.08C74.8943 17.56 75.2477 16.9 75.2477 16.1C75.2477 15.38 74.9943 14.8267 74.4877 14.44C73.9943 14.0533 73.1743 13.7667 72.0277 13.58L70.0077 13.26C68.661 13.0467 67.6677 12.6533 67.0277 12.08C66.3877 11.4933 66.0677 10.7067 66.0677 9.72C66.0677 8.56 66.521 7.62 67.4277 6.9C68.3343 6.18 69.521 5.82 70.9877 5.82C71.961 5.82 72.9277 5.98 73.8877 6.3C74.8477 6.62 75.721 7.08 76.5077 7.68L75.6277 8.88C74.8677 8.30667 74.0943 7.87333 73.3077 7.58C72.521 7.28667 71.7277 7.14 70.9277 7.14C69.9277 7.14 69.1143 7.37333 68.4877 7.84C67.8743 8.29333 67.5677 8.88 67.5677 9.6C67.5677 10.2533 67.7877 10.7533 68.2277 11.1C68.6677 11.4467 69.3943 11.7 70.4077 11.86L72.4077 12.18C73.9277 12.4333 75.0343 12.8667 75.7277 13.48C76.4343 14.0933 76.7877 14.94 76.7877 16.02C76.7877 16.6333 76.6543 17.2 76.3877 17.72C76.1343 18.2267 75.7677 18.6667 75.2877 19.04C74.821 19.4 74.2543 19.6867 73.5877 19.9C72.9343 20.1 72.2143 20.2 71.4277 20.2C70.321 20.2 69.2543 19.98 68.2277 19.54C67.2143 19.0867 66.3277 18.44 65.5677 17.6Z" fill="white"/>
<path d="M86.8799 20V6H96.8998V7.36H88.4199V12.26H93.9599V13.6H88.4199V18.64H96.9799V20H86.8799Z" fill="white"/>
</svg>
