<svg width="95" height="26" viewBox="0 0 95 26" fill="none" xmlns="http://www.w3.org/2000/svg">
<path d="M1.53999 20V5.99999H7.61999C8.97999 5.99999 10.0733 6.37333 10.9 7.11999C11.7267 7.85333 12.14 8.82666 12.14 10.04C12.14 11.2533 11.72 12.2333 10.88 12.98C10.0533 13.7267 8.96666 14.1 7.61999 14.1H3.07999V20H1.53999ZM7.49999 7.37999H3.07999V12.76H7.49999C8.44666 12.76 9.19999 12.52 9.75999 12.04C10.32 11.5467 10.6 10.8867 10.6 10.06C10.6 9.23333 10.32 8.57999 9.75999 8.09999C9.19999 7.61999 8.44666 7.37999 7.49999 7.37999Z" fill="white"/>
<path d="M18.998 20L24.818 5.99999H26.678L32.418 20H30.738L28.978 15.6H22.378L20.598 20H18.998ZM22.918 14.28H28.438L25.698 7.43999L22.918 14.28Z" fill="white"/>
<path d="M52.7848 14.08C52.7848 15.9467 52.2582 17.44 51.2048 18.56C50.1648 19.6667 48.7648 20.22 47.0048 20.22C45.2315 20.22 43.8248 19.6667 42.7848 18.56C41.7448 17.4533 41.2248 15.96 41.2248 14.08V5.99999H42.7648V14.08C42.7648 15.5067 43.1515 16.6533 43.9248 17.52C44.6982 18.3733 45.7248 18.8 47.0048 18.8C48.2848 18.8 49.3115 18.3733 50.0848 17.52C50.8582 16.6533 51.2448 15.5067 51.2448 14.08V5.99999H52.7848V14.08Z" fill="white"/>
<path d="M62.2669 17.6L63.2869 16.54C64.0069 17.3 64.7735 17.88 65.5869 18.28C66.4135 18.6667 67.2802 18.86 68.1869 18.86C69.2802 18.86 70.1802 18.6 70.8869 18.08C71.5935 17.56 71.9469 16.9 71.9469 16.1C71.9469 15.38 71.6935 14.8267 71.1869 14.44C70.6935 14.0533 69.8735 13.7667 68.7269 13.58L66.7069 13.26C65.3602 13.0467 64.3669 12.6533 63.7269 12.08C63.0869 11.4933 62.7669 10.7067 62.7669 9.71999C62.7669 8.55999 63.2202 7.61999 64.1269 6.89999C65.0335 6.17999 66.2202 5.81999 67.6869 5.81999C68.6602 5.81999 69.6269 5.97999 70.5869 6.29999C71.5469 6.61999 72.4202 7.07999 73.2069 7.67999L72.3269 8.87999C71.5669 8.30666 70.7935 7.87333 70.0069 7.57999C69.2202 7.28666 68.4269 7.13999 67.6269 7.13999C66.6269 7.13999 65.8135 7.37333 65.1869 7.83999C64.5735 8.29333 64.2669 8.87999 64.2669 9.59999C64.2669 10.2533 64.4869 10.7533 64.9269 11.1C65.3669 11.4467 66.0935 11.7 67.1069 11.86L69.1069 12.18C70.6269 12.4333 71.7335 12.8667 72.4269 13.48C73.1335 14.0933 73.4869 14.94 73.4869 16.02C73.4869 16.6333 73.3535 17.2 73.0869 17.72C72.8335 18.2267 72.4669 18.6667 71.9869 19.04C71.5202 19.4 70.9535 19.6867 70.2869 19.9C69.6335 20.1 68.9135 20.2 68.1269 20.2C67.0202 20.2 65.9535 19.98 64.9269 19.54C63.9135 19.0867 63.0269 18.44 62.2669 17.6Z" fill="white"/>
<path d="M83.5791 20V5.99999H93.5991V7.35999H85.1191V12.26H90.6591V13.6H85.1191V18.64H93.6791V20H83.5791Z" fill="white"/>
</svg>
