<svg width="74" height="26" viewBox="0 0 74 26" fill="none" xmlns="http://www.w3.org/2000/svg">
<rect width="74" height="26" fill="white"/>
<path d="M1.53999 20V6H7.61999C8.97999 6 10.0733 6.37333 10.9 7.12C11.7267 7.85333 12.14 8.82667 12.14 10.04C12.14 11.2533 11.72 12.2333 10.88 12.98C10.0533 13.7267 8.96666 14.1 7.61999 14.1H3.07999V20H1.53999ZM7.49999 7.38H3.07999V12.76H7.49999C8.44666 12.76 9.19999 12.52 9.75999 12.04C10.32 11.5467 10.6 10.8867 10.6 10.06C10.6 9.23333 10.32 8.58 9.75999 8.1C9.19999 7.62 8.44666 7.38 7.49999 7.38Z" fill="white"/>
<path d="M22.4892 20V6H24.0292V18.62H32.3692V20H22.4892Z" fill="white"/>
<path d="M41.6269 20L47.4469 6H49.3069L55.0469 20H53.3669L51.6069 15.6H45.0069L43.2269 20H41.6269ZM45.5469 14.28H51.0669L48.3269 7.44L45.5469 14.28Z" fill="white"/>
<path d="M66.1044 20V14.3L60.5444 6H62.3444L66.9244 12.94L71.4844 6H73.2244L67.6444 14.36V20H66.1044Z" fill="white"/>
</svg>
